<?xml version="1.0" encoding="UTF-8" standalone="no"?>
<!DOCTYPE svg PUBLIC "-//W3C//DTD SVG 1.1//EN"
"http://www.w3.org/Graphics/SVG/1.1/DTD/svg11.dtd">
<svg viewBox="0 0 909 1286" version="1.1" xmlns="http://www.w3.org/2000/svg" xmlns:xlink="http://www.w3.org/1999/xlink">
<defs>
<style type="text/css"><![CDATA[
.g1_4{
}
]]></style>
</defs>
<path fill-rule="evenodd" d="M109.7,740.4l0.7,0l0,-0.7l-0.7,0l0,0.7Z" class="g1_4" />
<path fill-rule="evenodd" d="M109.7,740.4l0.7,0l0,-0.7l-0.7,0l0,0.7Z" class="g1_4" />
<path fill-rule="evenodd" d="M110.4,740.4l42,0l0,-0.7l-42,0l0,0.7Z" class="g1_4" />
<path fill-rule="evenodd" d="M152.4,740.4l0.7,0l0,-0.7l-0.7,0l0,0.7Z" class="g1_4" />
<path fill-rule="evenodd" d="M153.1,740.4l316,0l0,-0.7l-316,0l0,0.7Z" class="g1_4" />
<path fill-rule="evenodd" d="M469.1,740.4l0.7,0l0,-0.7l-0.7,0l0,0.7Z" class="g1_4" />
<path fill-rule="evenodd" d="M469.1,740.4l0.7,0l0,-0.7l-0.7,0l0,0.7Z" class="g1_4" />
<path fill-rule="evenodd" d="M109.7,776.3l0.7,0l0,-35.9l-0.7,0l0,35.9Z" class="g1_4" />
<path fill-rule="evenodd" d="M152.4,776.3l0.7,0l0,-35.9l-0.7,0l0,35.9Z" class="g1_4" />
<path fill-rule="evenodd" d="M469.1,776.3l0.7,0l0,-35.9l-0.7,0l0,35.9Z" class="g1_4" />
<path fill-rule="evenodd" d="M109.7,777.1l0.7,0l0,-0.8l-0.7,0l0,0.8Z" class="g1_4" />
<path fill-rule="evenodd" d="M110.4,777.1l42,0l0,-0.8l-42,0l0,0.8Z" class="g1_4" />
<path fill-rule="evenodd" d="M152.4,777.1l0.7,0l0,-0.8l-0.7,0l0,0.8Z" class="g1_4" />
<path fill-rule="evenodd" d="M153.1,777.1l316,0l0,-0.8l-316,0l0,0.8Z" class="g1_4" />
<path fill-rule="evenodd" d="M469.1,777.1l0.7,0l0,-0.8l-0.7,0l0,0.8Z" class="g1_4" />
<path fill-rule="evenodd" d="M109.7,866.7l0.7,0l0,-89.6l-0.7,0l0,89.6Z" class="g1_4" />
<path fill-rule="evenodd" d="M152.4,866.7l0.7,0l0,-89.6l-0.7,0l0,89.6Z" class="g1_4" />
<path fill-rule="evenodd" d="M469.1,866.7l0.7,0l0,-89.6l-0.7,0l0,89.6Z" class="g1_4" />
<path fill-rule="evenodd" d="M109.7,867.5l0.7,0l0,-0.8l-0.7,0l0,0.8Z" class="g1_4" />
<path fill-rule="evenodd" d="M110.4,867.5l42,0l0,-0.8l-42,0l0,0.8Z" class="g1_4" />
<path fill-rule="evenodd" d="M152.4,867.5l0.7,0l0,-0.8l-0.7,0l0,0.8Z" class="g1_4" />
<path fill-rule="evenodd" d="M153.1,867.5l316,0l0,-0.8l-316,0l0,0.8Z" class="g1_4" />
<path fill-rule="evenodd" d="M469.1,867.5l0.7,0l0,-0.8l-0.7,0l0,0.8Z" class="g1_4" />
<path fill-rule="evenodd" d="M109.7,957l0.7,0l0,-89.5l-0.7,0l0,89.5Z" class="g1_4" />
<path fill-rule="evenodd" d="M152.4,957l0.7,0l0,-89.5l-0.7,0l0,89.5Z" class="g1_4" />
<path fill-rule="evenodd" d="M469.1,957l0.7,0l0,-89.5l-0.7,0l0,89.5Z" class="g1_4" />
<path fill-rule="evenodd" d="M109.7,957.7l0.7,0l0,-0.7l-0.7,0l0,0.7Z" class="g1_4" />
<path fill-rule="evenodd" d="M110.4,957.7l42,0l0,-0.7l-42,0l0,0.7Z" class="g1_4" />
<path fill-rule="evenodd" d="M152.4,957.7l0.7,0l0,-0.7l-0.7,0l0,0.7Z" class="g1_4" />
<path fill-rule="evenodd" d="M153.1,957.7l316,0l0,-0.7l-316,0l0,0.7Z" class="g1_4" />
<path fill-rule="evenodd" d="M469.1,957.7l0.7,0l0,-0.7l-0.7,0l0,0.7Z" class="g1_4" />
<path fill-rule="evenodd" d="M109.7,1029.4l0.7,0l0,-71.7l-0.7,0l0,71.7Z" class="g1_4" />
<path fill-rule="evenodd" d="M152.4,1029.4l0.7,0l0,-71.7l-0.7,0l0,71.7Z" class="g1_4" />
<path fill-rule="evenodd" d="M469.1,1029.4l0.7,0l0,-71.7l-0.7,0l0,71.7Z" class="g1_4" />
<path fill-rule="evenodd" d="M109.7,1030.1l0.7,0l0,-0.7l-0.7,0l0,0.7Z" class="g1_4" />
<path fill-rule="evenodd" d="M110.4,1030.1l42,0l0,-0.7l-42,0l0,0.7Z" class="g1_4" />
<path fill-rule="evenodd" d="M152.4,1030.1l0.7,0l0,-0.7l-0.7,0l0,0.7Z" class="g1_4" />
<path fill-rule="evenodd" d="M153.1,1030.1l316,0l0,-0.7l-316,0l0,0.7Z" class="g1_4" />
<path fill-rule="evenodd" d="M469.1,1030.1l0.7,0l0,-0.7l-0.7,0l0,0.7Z" class="g1_4" />
<path fill-rule="evenodd" d="M109.7,1137.8l0.7,0l0,-107.7l-0.7,0l0,107.7Z" class="g1_4" />
<path fill-rule="evenodd" d="M152.4,1137.8l0.7,0l0,-107.7l-0.7,0l0,107.7Z" class="g1_4" />
<path fill-rule="evenodd" d="M469.1,1137.8l0.7,0l0,-107.7l-0.7,0l0,107.7Z" class="g1_4" />
<path fill-rule="evenodd" d="M109.7,1138.5l0.7,0l0,-0.7l-0.7,0l0,0.7Z" class="g1_4" />
<path fill-rule="evenodd" d="M110.4,1138.5l42,0l0,-0.7l-42,0l0,0.7Z" class="g1_4" />
<path fill-rule="evenodd" d="M152.4,1138.5l0.7,0l0,-0.7l-0.7,0l0,0.7Z" class="g1_4" />
<path fill-rule="evenodd" d="M153.1,1138.5l316,0l0,-0.7l-316,0l0,0.7Z" class="g1_4" />
<path fill-rule="evenodd" d="M469.1,1138.5l0.7,0l0,-0.7l-0.7,0l0,0.7Z" class="g1_4" />
<path fill-rule="evenodd" d="M109.7,1174.2l0.7,0l0,-35.7l-0.7,0l0,35.7Z" class="g1_4" />
<path fill-rule="evenodd" d="M109.7,1175l0.7,0l0,-0.7l-0.7,0l0,0.7Z" class="g1_4" />
<path fill-rule="evenodd" d="M109.7,1175l0.7,0l0,-0.7l-0.7,0l0,0.7Z" class="g1_4" />
<path fill-rule="evenodd" d="M110.4,1175l42,0l0,-0.7l-42,0l0,0.7Z" class="g1_4" />
<path fill-rule="evenodd" d="M152.4,1174.2l0.7,0l0,-35.7l-0.7,0l0,35.7Z" class="g1_4" />
<path fill-rule="evenodd" d="M152.4,1175l0.7,0l0,-0.7l-0.7,0l0,0.7Z" class="g1_4" />
<path fill-rule="evenodd" d="M153.1,1175l316,0l0,-0.7l-316,0l0,0.7Z" class="g1_4" />
<path fill-rule="evenodd" d="M469.1,1174.2l0.7,0l0,-35.7l-0.7,0l0,35.7Z" class="g1_4" />
<path fill-rule="evenodd" d="M469.1,1175l0.7,0l0,-0.7l-0.7,0l0,0.7Z" class="g1_4" />
<path fill-rule="evenodd" d="M469.1,1175l0.7,0l0,-0.7l-0.7,0l0,0.7Z" class="g1_4" />
</svg>