<?xml version="1.0" encoding="UTF-8" standalone="no"?>
<!DOCTYPE svg PUBLIC "-//W3C//DTD SVG 1.1//EN"
"http://www.w3.org/Graphics/SVG/1.1/DTD/svg11.dtd">
<svg viewBox="0 0 909 1286" version="1.1" xmlns="http://www.w3.org/2000/svg" xmlns:xlink="http://www.w3.org/1999/xlink">
<defs>
<style type="text/css"><![CDATA[
.g1_5{
}
]]></style>
</defs>
<path fill-rule="evenodd" d="M109.7,110.7l0.7,0l0,-0.7l-0.7,0l0,0.7Z" class="g1_5" />
<path fill-rule="evenodd" d="M109.7,110.7l0.7,0l0,-0.7l-0.7,0l0,0.7Z" class="g1_5" />
<path fill-rule="evenodd" d="M110.4,110.7l42,0l0,-0.7l-42,0l0,0.7Z" class="g1_5" />
<path fill-rule="evenodd" d="M152.4,110.7l0.7,0l0,-0.7l-0.7,0l0,0.7Z" class="g1_5" />
<path fill-rule="evenodd" d="M153.1,110.7l316,0l0,-0.7l-316,0l0,0.7Z" class="g1_5" />
<path fill-rule="evenodd" d="M469.1,110.7l0.7,0l0,-0.7l-0.7,0l0,0.7Z" class="g1_5" />
<path fill-rule="evenodd" d="M469.1,110.7l0.7,0l0,-0.7l-0.7,0l0,0.7Z" class="g1_5" />
<path fill-rule="evenodd" d="M109.7,218.2l0.7,0l0,-107.5l-0.7,0l0,107.5Z" class="g1_5" />
<path fill-rule="evenodd" d="M152.4,218.2l0.7,0l0,-107.5l-0.7,0l0,107.5Z" class="g1_5" />
<path fill-rule="evenodd" d="M469.1,218.2l0.7,0l0,-107.5l-0.7,0l0,107.5Z" class="g1_5" />
<path fill-rule="evenodd" d="M109.7,218.9l0.7,0l0,-0.7l-0.7,0l0,0.7Z" class="g1_5" />
<path fill-rule="evenodd" d="M110.4,218.9l42,0l0,-0.7l-42,0l0,0.7Z" class="g1_5" />
<path fill-rule="evenodd" d="M152.4,218.9l0.7,0l0,-0.7l-0.7,0l0,0.7Z" class="g1_5" />
<path fill-rule="evenodd" d="M153.1,218.9l316,0l0,-0.7l-316,0l0,0.7Z" class="g1_5" />
<path fill-rule="evenodd" d="M469.1,218.9l0.7,0l0,-0.7l-0.7,0l0,0.7Z" class="g1_5" />
<path fill-rule="evenodd" d="M109.7,308.6l0.7,0l0,-89.7l-0.7,0l0,89.7Z" class="g1_5" />
<path fill-rule="evenodd" d="M152.4,308.6l0.7,0l0,-89.7l-0.7,0l0,89.7Z" class="g1_5" />
<path fill-rule="evenodd" d="M469.1,308.6l0.7,0l0,-89.7l-0.7,0l0,89.7Z" class="g1_5" />
<path fill-rule="evenodd" d="M109.7,309.3l0.7,0l0,-0.7l-0.7,0l0,0.7Z" class="g1_5" />
<path fill-rule="evenodd" d="M110.4,309.3l42,0l0,-0.7l-42,0l0,0.7Z" class="g1_5" />
<path fill-rule="evenodd" d="M152.4,309.3l0.7,0l0,-0.7l-0.7,0l0,0.7Z" class="g1_5" />
<path fill-rule="evenodd" d="M153.1,309.3l316,0l0,-0.7l-316,0l0,0.7Z" class="g1_5" />
<path fill-rule="evenodd" d="M469.1,309.3l0.7,0l0,-0.7l-0.7,0l0,0.7Z" class="g1_5" />
<path fill-rule="evenodd" d="M109.7,452.7l0.7,0l0,-143.4l-0.7,0l0,143.4Z" class="g1_5" />
<path fill-rule="evenodd" d="M152.4,452.7l0.7,0l0,-143.4l-0.7,0l0,143.4Z" class="g1_5" />
<path fill-rule="evenodd" d="M469.1,452.7l0.7,0l0,-143.4l-0.7,0l0,143.4Z" class="g1_5" />
<path fill-rule="evenodd" d="M109.7,453.5l0.7,0l0,-0.8l-0.7,0l0,0.8Z" class="g1_5" />
<path fill-rule="evenodd" d="M110.4,453.5l42,0l0,-0.8l-42,0l0,0.8Z" class="g1_5" />
<path fill-rule="evenodd" d="M152.4,453.5l0.7,0l0,-0.8l-0.7,0l0,0.8Z" class="g1_5" />
<path fill-rule="evenodd" d="M153.1,453.5l316,0l0,-0.8l-316,0l0,0.8Z" class="g1_5" />
<path fill-rule="evenodd" d="M469.1,453.5l0.7,0l0,-0.8l-0.7,0l0,0.8Z" class="g1_5" />
<path fill-rule="evenodd" d="M109.7,507.2l0.7,0l0,-53.7l-0.7,0l0,53.7Z" class="g1_5" />
<path fill-rule="evenodd" d="M152.4,507.2l0.7,0l0,-53.7l-0.7,0l0,53.7Z" class="g1_5" />
<path fill-rule="evenodd" d="M469.1,507.2l0.7,0l0,-53.7l-0.7,0l0,53.7Z" class="g1_5" />
<path fill-rule="evenodd" d="M109.7,507.9l0.7,0l0,-0.7l-0.7,0l0,0.7Z" class="g1_5" />
<path fill-rule="evenodd" d="M110.4,507.9l42,0l0,-0.7l-42,0l0,0.7Z" class="g1_5" />
<path fill-rule="evenodd" d="M152.4,507.9l0.7,0l0,-0.7l-0.7,0l0,0.7Z" class="g1_5" />
<path fill-rule="evenodd" d="M153.1,507.9l316,0l0,-0.7l-316,0l0,0.7Z" class="g1_5" />
<path fill-rule="evenodd" d="M469.1,507.9l0.7,0l0,-0.7l-0.7,0l0,0.7Z" class="g1_5" />
<path fill-rule="evenodd" d="M109.7,543.8l0.7,0l0,-35.9l-0.7,0l0,35.9Z" class="g1_5" />
<path fill-rule="evenodd" d="M152.4,543.8l0.7,0l0,-35.9l-0.7,0l0,35.9Z" class="g1_5" />
<path fill-rule="evenodd" d="M469.1,543.8l0.7,0l0,-35.9l-0.7,0l0,35.9Z" class="g1_5" />
<path fill-rule="evenodd" d="M109.7,544.6l0.7,0l0,-0.8l-0.7,0l0,0.8Z" class="g1_5" />
<path fill-rule="evenodd" d="M110.4,544.6l42,0l0,-0.8l-42,0l0,0.8Z" class="g1_5" />
<path fill-rule="evenodd" d="M152.4,544.6l0.7,0l0,-0.8l-0.7,0l0,0.8Z" class="g1_5" />
<path fill-rule="evenodd" d="M153.1,544.6l316,0l0,-0.8l-316,0l0,0.8Z" class="g1_5" />
<path fill-rule="evenodd" d="M469.1,544.6l0.7,0l0,-0.8l-0.7,0l0,0.8Z" class="g1_5" />
<path fill-rule="evenodd" d="M109.7,687.8l0.7,0l0,-143.2l-0.7,0l0,143.2Z" class="g1_5" />
<path fill-rule="evenodd" d="M152.4,687.8l0.7,0l0,-143.2l-0.7,0l0,143.2Z" class="g1_5" />
<path fill-rule="evenodd" d="M469.1,687.8l0.7,0l0,-143.2l-0.7,0l0,143.2Z" class="g1_5" />
<path fill-rule="evenodd" d="M109.7,688.5l0.7,0l0,-0.7l-0.7,0l0,0.7Z" class="g1_5" />
<path fill-rule="evenodd" d="M110.4,688.5l42,0l0,-0.7l-42,0l0,0.7Z" class="g1_5" />
<path fill-rule="evenodd" d="M152.4,688.5l0.7,0l0,-0.7l-0.7,0l0,0.7Z" class="g1_5" />
<path fill-rule="evenodd" d="M153.1,688.5l316,0l0,-0.7l-316,0l0,0.7Z" class="g1_5" />
<path fill-rule="evenodd" d="M469.1,688.5l0.7,0l0,-0.7l-0.7,0l0,0.7Z" class="g1_5" />
<path fill-rule="evenodd" d="M109.7,780.9l0.7,0l0,-92.4l-0.7,0l0,92.4Z" class="g1_5" />
<path fill-rule="evenodd" d="M152.4,780.9l0.7,0l0,-92.4l-0.7,0l0,92.4Z" class="g1_5" />
<path fill-rule="evenodd" d="M469.1,780.9l0.7,0l0,-92.4l-0.7,0l0,92.4Z" class="g1_5" />
<path fill-rule="evenodd" d="M109.7,781.7l0.7,0l0,-0.8l-0.7,0l0,0.8Z" class="g1_5" />
<path fill-rule="evenodd" d="M110.4,781.7l42,0l0,-0.8l-42,0l0,0.8Z" class="g1_5" />
<path fill-rule="evenodd" d="M152.4,781.7l0.7,0l0,-0.8l-0.7,0l0,0.8Z" class="g1_5" />
<path fill-rule="evenodd" d="M153.1,781.7l316,0l0,-0.8l-316,0l0,0.8Z" class="g1_5" />
<path fill-rule="evenodd" d="M469.1,781.7l0.7,0l0,-0.8l-0.7,0l0,0.8Z" class="g1_5" />
<path fill-rule="evenodd" d="M109.7,889.1l0.7,0l0,-107.4l-0.7,0l0,107.4Z" class="g1_5" />
<path fill-rule="evenodd" d="M152.4,889.1l0.7,0l0,-107.4l-0.7,0l0,107.4Z" class="g1_5" />
<path fill-rule="evenodd" d="M469.1,889.1l0.7,0l0,-107.4l-0.7,0l0,107.4Z" class="g1_5" />
<path fill-rule="evenodd" d="M109.7,889.9l0.7,0l0,-0.8l-0.7,0l0,0.8Z" class="g1_5" />
<path fill-rule="evenodd" d="M110.4,889.9l42,0l0,-0.8l-42,0l0,0.8Z" class="g1_5" />
<path fill-rule="evenodd" d="M152.4,889.9l0.7,0l0,-0.8l-0.7,0l0,0.8Z" class="g1_5" />
<path fill-rule="evenodd" d="M153.1,889.9l316,0l0,-0.8l-316,0l0,0.8Z" class="g1_5" />
<path fill-rule="evenodd" d="M469.1,889.9l0.7,0l0,-0.8l-0.7,0l0,0.8Z" class="g1_5" />
<path fill-rule="evenodd" d="M109.7,997.3l0.7,0l0,-107.4l-0.7,0l0,107.4Z" class="g1_5" />
<path fill-rule="evenodd" d="M152.4,997.3l0.7,0l0,-107.4l-0.7,0l0,107.4Z" class="g1_5" />
<path fill-rule="evenodd" d="M469.1,997.3l0.7,0l0,-107.4l-0.7,0l0,107.4Z" class="g1_5" />
<path fill-rule="evenodd" d="M109.7,998l0.7,0l0,-0.7l-0.7,0l0,0.7Z" class="g1_5" />
<path fill-rule="evenodd" d="M110.4,998l42,0l0,-0.7l-42,0l0,0.7Z" class="g1_5" />
<path fill-rule="evenodd" d="M152.4,998l0.7,0l0,-0.7l-0.7,0l0,0.7Z" class="g1_5" />
<path fill-rule="evenodd" d="M153.1,998l316,0l0,-0.7l-316,0l0,0.7Z" class="g1_5" />
<path fill-rule="evenodd" d="M469.1,998l0.7,0l0,-0.7l-0.7,0l0,0.7Z" class="g1_5" />
<path fill-rule="evenodd" d="M109.7,1034l0.7,0l0,-36l-0.7,0l0,36Z" class="g1_5" />
<path fill-rule="evenodd" d="M152.4,1034l0.7,0l0,-36l-0.7,0l0,36Z" class="g1_5" />
<path fill-rule="evenodd" d="M469.1,1034l0.7,0l0,-36l-0.7,0l0,36Z" class="g1_5" />
<path fill-rule="evenodd" d="M109.7,1034.7l0.7,0l0,-0.7l-0.7,0l0,0.7Z" class="g1_5" />
<path fill-rule="evenodd" d="M110.4,1034.7l42,0l0,-0.7l-42,0l0,0.7Z" class="g1_5" />
<path fill-rule="evenodd" d="M152.4,1034.7l0.7,0l0,-0.7l-0.7,0l0,0.7Z" class="g1_5" />
<path fill-rule="evenodd" d="M153.1,1034.7l316,0l0,-0.7l-316,0l0,0.7Z" class="g1_5" />
<path fill-rule="evenodd" d="M469.1,1034.7l0.7,0l0,-0.7l-0.7,0l0,0.7Z" class="g1_5" />
<path fill-rule="evenodd" d="M109.7,1106.4l0.7,0l0,-71.7l-0.7,0l0,71.7Z" class="g1_5" />
<path fill-rule="evenodd" d="M152.4,1106.4l0.7,0l0,-71.7l-0.7,0l0,71.7Z" class="g1_5" />
<path fill-rule="evenodd" d="M469.1,1106.4l0.7,0l0,-71.7l-0.7,0l0,71.7Z" class="g1_5" />
<path fill-rule="evenodd" d="M109.7,1107.1l0.7,0l0,-0.7l-0.7,0l0,0.7Z" class="g1_5" />
<path fill-rule="evenodd" d="M110.4,1107.1l42,0l0,-0.7l-42,0l0,0.7Z" class="g1_5" />
<path fill-rule="evenodd" d="M152.4,1107.1l0.7,0l0,-0.7l-0.7,0l0,0.7Z" class="g1_5" />
<path fill-rule="evenodd" d="M153.1,1107.1l316,0l0,-0.7l-316,0l0,0.7Z" class="g1_5" />
<path fill-rule="evenodd" d="M469.1,1107.1l0.7,0l0,-0.7l-0.7,0l0,0.7Z" class="g1_5" />
<path fill-rule="evenodd" d="M109.7,1160.9l0.7,0l0,-53.8l-0.7,0l0,53.8Z" class="g1_5" />
<path fill-rule="evenodd" d="M109.7,1161.6l0.7,0l0,-0.7l-0.7,0l0,0.7Z" class="g1_5" />
<path fill-rule="evenodd" d="M109.7,1161.6l0.7,0l0,-0.7l-0.7,0l0,0.7Z" class="g1_5" />
<path fill-rule="evenodd" d="M110.4,1161.6l42,0l0,-0.7l-42,0l0,0.7Z" class="g1_5" />
<path fill-rule="evenodd" d="M152.4,1160.9l0.7,0l0,-53.8l-0.7,0l0,53.8Z" class="g1_5" />
<path fill-rule="evenodd" d="M152.4,1161.6l0.7,0l0,-0.7l-0.7,0l0,0.7Z" class="g1_5" />
<path fill-rule="evenodd" d="M153.1,1161.6l316,0l0,-0.7l-316,0l0,0.7Z" class="g1_5" />
<path fill-rule="evenodd" d="M469.1,1160.9l0.7,0l0,-53.8l-0.7,0l0,53.8Z" class="g1_5" />
<path fill-rule="evenodd" d="M469.1,1161.6l0.7,0l0,-0.7l-0.7,0l0,0.7Z" class="g1_5" />
<path fill-rule="evenodd" d="M469.1,1161.6l0.7,0l0,-0.7l-0.7,0l0,0.7Z" class="g1_5" />
</svg>